# Blender v2.80 (sub 75) OBJ File: ''
# www.blender.org
o Plane
v -1.000000 0.000000 1.000000
v 1.000000 0.000000 1.000000
v -1.000000 0.000000 -1.000000
v 1.000000 0.000000 -1.000000
vt 1.000000 0.000000
vt 0.000000 1.000000
vt 0.000000 0.000000
vt 1.000000 1.000000
vn 0.0000 1.0000 0.0000
s off
f 2/1/1 3/2/1 1/3/1
f 2/1/1 4/4/1 3/2/1
o Cube.001
v -10.259345 1.967891 -1.000000
v 9.740655 1.967891 1.000000
v 9.740655 1.967891 -1.000000
v -10.259345 -0.032109 1.000000
v 9.740655 -0.032109 1.000000
v -10.259345 1.967891 1.000000
v -10.259345 -0.032109 -1.000000
v 9.740655 -0.032109 -1.000000
vt 0.625000 0.000000
vt 0.375000 0.250000
vt 0.375000 0.000000
vt 0.625000 0.250000
vt 0.375000 0.500000
vt 0.375000 0.250000
vt 0.625000 0.500000
vt 0.375000 0.750000
vt 0.625000 0.750000
vt 0.375000 1.000000
vt 0.375000 0.500000
vt 0.125000 0.750000
vt 0.125000 0.500000
vt 0.875000 0.500000
vt 0.625000 0.500000
vt 0.625000 0.250000
vt 0.625000 0.750000
vt 0.625000 1.000000
vt 0.375000 0.750000
vt 0.875000 0.750000
vn 0.0000 1.0000 0.0000
vn 0.0000 -0.0000 1.0000
vn -1.0000 0.0000 0.0000
vn 0.0000 -1.0000 -0.0000
vn 1.0000 0.0000 0.0000
vn 0.0000 0.0000 -1.0000
s 1
f 5/5/2 6/6/2 7/7/2
f 6/8/3 8/9/3 9/10/3
f 10/11/4 11/12/4 8/9/4
f 12/13/5 8/14/5 11/12/5
f 7/15/6 9/16/6 12/17/6
f 5/18/7 12/13/7 11/19/7
f 5/5/2 10/20/2 6/6/2
f 6/8/3 10/11/3 8/9/3
f 10/11/4 5/21/4 11/12/4
f 12/13/5 9/22/5 8/14/5
f 7/15/6 6/23/6 9/16/6
f 5/18/7 7/24/7 12/13/7
o Cube.002
v -1.259345 1.967891 -10.000000
v 0.740655 1.967891 10.000000
v 0.740655 1.967891 -10.000000
v -1.259345 -0.032109 10.000000
v 0.740655 -0.032109 10.000000
v -1.259345 1.967891 10.000000
v -1.259345 -0.032109 -10.000000
v 0.740655 -0.032109 -10.000000
vt 0.625000 0.000000
vt 0.375000 0.250000
vt 0.375000 0.000000
vt 0.625000 0.250000
vt 0.375000 0.500000
vt 0.375000 0.250000
vt 0.625000 0.500000
vt 0.375000 0.750000
vt 0.625000 0.750000
vt 0.375000 1.000000
vt 0.375000 0.500000
vt 0.125000 0.750000
vt 0.125000 0.500000
vt 0.875000 0.500000
vt 0.625000 0.500000
vt 0.625000 0.250000
vt 0.625000 0.750000
vt 0.625000 1.000000
vt 0.375000 0.750000
vt 0.875000 0.750000
vn 0.0000 1.0000 0.0000
vn 0.0000 0.0000 1.0000
vn -1.0000 0.0000 0.0000
vn 0.0000 -1.0000 -0.0000
vn 1.0000 0.0000 0.0000
vn 0.0000 0.0000 -1.0000
s 1
f 13/25/8 14/26/8 15/27/8
f 14/28/9 16/29/9 17/30/9
f 18/31/10 19/32/10 16/29/10
f 20/33/11 16/34/11 19/32/11
f 15/35/12 17/36/12 20/37/12
f 13/38/13 20/33/13 19/39/13
f 13/25/8 18/40/8 14/26/8
f 14/28/9 18/31/9 16/29/9
f 18/31/10 13/41/10 19/32/10
f 20/33/11 17/42/11 16/34/11
f 15/35/12 14/43/12 17/36/12
f 13/38/13 15/44/13 20/33/13
